<svg xmlns="http://www.w3.org/2000/svg" viewBox="0 0 100 100" width="100" height="100">
  <!-- 猫咪头部 -->
  <circle cx="50" cy="50" r="35" fill="#FFD54F" />
  <!-- 猫咪耳朵 -->
  <polygon points="30,25 25,5 40,20" fill="#FFD54F" />
  <polygon points="70,25 75,5 60,20" fill="#FFD54F" />
  <!-- 猫咪眼睛 -->
  <ellipse cx="35" cy="45" rx="5" ry="7" fill="#4CAF50" />
  <ellipse cx="65" cy="45" rx="5" ry="7" fill="#4CAF50" />
  <!-- 猫咪瞳孔 -->
  <ellipse cx="35" cy="45" rx="2" ry="4" fill="#000" />
  <ellipse cx="65" cy="45" rx="2" ry="4" fill="#000" />
  <!-- 猫咪鼻子 -->
  <polygon points="50,55 45,60 55,60" fill="#FF6B6B" />
  <!-- 猫咪嘴巴 -->
  <path d="M45,60 Q50,65 55,60" stroke="#000" stroke-width="1" fill="none" />
  <!-- 猫咪胡须 -->
  <line x1="45" y1="58" x2="25" y2="55" stroke="#000" stroke-width="1" />
  <line x1="45" y1="60" x2="25" y2="60" stroke="#000" stroke-width="1" />
  <line x1="45" y1="62" x2="25" y2="65" stroke="#000" stroke-width="1" />
  <line x1="55" y1="58" x2="75" y2="55" stroke="#000" stroke-width="1" />
  <line x1="55" y1="60" x2="75" y2="60" stroke="#000" stroke-width="1" />
  <line x1="55" y1="62" x2="75" y2="65" stroke="#000" stroke-width="1" />
</svg>